<svg width="149" height="59" viewBox="0 0 149 59" fill="none" xmlns="http://www.w3.org/2000/svg">
<path fill-rule="evenodd" clip-rule="evenodd" d="M1 54.817H54.456V54.062H1V54.817Z" fill="#4FE306" stroke="#4FE306" stroke-width="0.5"/>
<path fill-rule="evenodd" clip-rule="evenodd" d="M70.9912 54.3891C71.0269 54.7471 70.9855 55.1086 70.8698 55.4492C70.754 55.7899 70.5667 56.1018 70.3204 56.3641C70.0741 56.6263 69.7745 56.8327 69.4417 56.9695C69.109 57.1063 68.7508 57.1703 68.3912 57.1571C67.8812 57.1571 67.3382 57.1481 66.8472 57.1311V51.7471C67.3392 51.7281 67.8472 51.7121 68.3012 51.7121C68.6602 51.686 69.0207 51.7372 69.3582 51.8622C69.6958 51.9873 70.0026 52.1833 70.2579 52.437C70.5132 52.6907 70.7112 52.9963 70.8384 53.333C70.9656 53.6698 71.0191 54.0299 70.9952 54.3891H70.9912ZM68.3012 50.7891C67.5782 50.7891 66.6902 50.8351 66.1012 50.8651L65.8862 50.8761V58.0011L66.0052 58.0071C66.4192 58.0281 67.4812 58.0781 68.3902 58.0781C68.8688 58.0722 69.3415 57.972 69.7813 57.7835C70.2212 57.5949 70.6196 57.3215 70.9538 56.9789C71.2879 56.6364 71.5514 56.2314 71.7291 55.787C71.9067 55.3426 71.9951 54.8676 71.9892 54.3891C71.9833 53.9105 71.8832 53.4378 71.6946 52.998C71.506 52.5581 71.2327 52.1597 70.8901 51.8255C70.5476 51.4913 70.1425 51.2279 69.6982 51.0502C69.2538 50.8726 68.7788 50.7842 68.3002 50.7901" fill="#4FE306"/>
<path d="M68.3012 50.7891C67.5782 50.7891 66.6902 50.8351 66.1012 50.8651L65.8862 50.8761V58.0011L66.0052 58.0071C66.4192 58.0281 67.4812 58.0781 68.3902 58.0781C68.8688 58.0722 69.3415 57.972 69.7813 57.7835C70.2212 57.5949 70.6196 57.3215 70.9538 56.9789C71.2879 56.6364 71.5514 56.2314 71.7291 55.787C71.9067 55.3426 71.9951 54.8676 71.9892 54.3891C71.9833 53.9105 71.8832 53.4378 71.6946 52.998C71.506 52.5581 71.2327 52.1597 70.8901 51.8255C70.5476 51.4913 70.1425 51.2279 69.6982 51.0502C69.2538 50.8726 68.7788 50.7842 68.3002 50.7901M70.9912 54.3891C71.0269 54.7471 70.9855 55.1086 70.8698 55.4492C70.754 55.7899 70.5667 56.1018 70.3204 56.3641C70.0741 56.6263 69.7745 56.8327 69.4417 56.9695C69.109 57.1063 68.7508 57.1703 68.3912 57.1571C67.8812 57.1571 67.3382 57.1481 66.8472 57.1311V51.7471C67.3392 51.7281 67.8472 51.7121 68.3012 51.7121C68.6602 51.686 69.0207 51.7372 69.3582 51.8622C69.6958 51.9873 70.0026 52.1833 70.2579 52.437C70.5132 52.6907 70.7112 52.9963 70.8384 53.333C70.9656 53.6698 71.0191 54.0299 70.9952 54.3891H70.9912Z" stroke="#4FE306" stroke-width="0.25"/>
<path fill-rule="evenodd" clip-rule="evenodd" d="M79.0708 58.0071H80.0308V50.8711H79.0708V58.0071Z" fill="#4FE306" stroke="#4FE306" stroke-width="0.25"/>
<path fill-rule="evenodd" clip-rule="evenodd" d="M90.4579 54.9212H93.1769V56.8112C92.4436 57.0732 91.6716 57.2107 90.8929 57.2182C90.5281 57.2156 90.1674 57.1411 89.8314 56.9991C89.4953 56.8571 89.1906 56.6502 88.9345 56.3904C88.6784 56.1306 88.4759 55.8229 88.3388 55.4848C88.2016 55.1468 88.1323 54.785 88.1349 54.4202C88.1376 54.0554 88.212 53.6947 88.3541 53.3586C88.4961 53.0226 88.7029 52.7178 88.9627 52.4617C89.2226 52.2056 89.5303 52.0032 89.8683 51.866C90.2064 51.7288 90.5681 51.6596 90.9329 51.6622C91.6823 51.677 92.4272 51.7811 93.1519 51.9722L93.2749 52.0032L93.4749 51.1032L93.3619 51.0702C92.5575 50.8379 91.7243 50.7204 90.8869 50.7212C90.3934 50.7131 89.9031 50.8033 89.4447 50.9866C88.9864 51.1699 88.5691 51.4426 88.2172 51.7888C87.8653 52.135 87.5858 52.5477 87.395 53.003C87.2042 53.4583 87.106 53.9471 87.106 54.4407C87.106 54.9344 87.2042 55.4231 87.395 55.8784C87.5858 56.3337 87.8653 56.7464 88.2172 57.0926C88.5691 57.4388 88.9864 57.7115 89.4447 57.8948C89.9031 58.0781 90.3934 58.1683 90.8869 58.1602C91.971 58.1431 93.0398 57.9017 94.0259 57.4512L94.1009 57.4182V53.9992H90.4579V54.9212Z" fill="#4FE306" stroke="#4FE306" stroke-width="0.25"/>
<path fill-rule="evenodd" clip-rule="evenodd" d="M101.247 58.0071H102.207V50.8711H101.247V58.0071Z" fill="#4FE306" stroke="#4FE306" stroke-width="0.25"/>
<path fill-rule="evenodd" clip-rule="evenodd" d="M108.648 51.7821H111.337V58.0071H112.297V51.7821H114.986V50.8711H108.648V51.7821Z" fill="#4FE306" stroke="#4FE306" stroke-width="0.25"/>
<path fill-rule="evenodd" clip-rule="evenodd" d="M125.445 55.4263H122.601L124.027 52.1803L125.445 55.4263ZM123.607 50.8213L120.407 58.0073H121.482L122.212 56.3273H125.848L126.587 58.0073H127.652L124.452 50.8213H123.607Z" fill="#4FE306" stroke="#4FE306" stroke-width="0.25"/>
<path fill-rule="evenodd" clip-rule="evenodd" d="M135.411 57.1061V50.8711H134.451V58.0071H139.196V57.1071L135.411 57.1061Z" fill="#4FE306" stroke="#4FE306" stroke-width="0.25"/>
<path fill-rule="evenodd" clip-rule="evenodd" d="M7.51916 20.1041C8.73906 20.0879 9.94959 19.8884 11.1102 19.5121L11.5362 19.3781L11.1592 17.5611L10.6592 17.6981C9.65118 17.9955 8.6095 18.1635 7.55915 18.1981C7.08313 18.235 6.60474 18.1692 6.15629 18.0054C5.70785 17.8415 5.29979 17.5833 4.95968 17.2482C4.61956 16.9131 4.35532 16.5089 4.18479 16.063C4.01425 15.617 3.9414 15.1397 3.97115 14.6631C3.97115 12.4851 5.37116 11.1851 7.70916 11.1851C8.64292 11.2066 9.56984 11.3505 10.4662 11.6131L10.9722 11.7501L11.3362 9.87114L10.9112 9.74114C9.83805 9.41454 8.72285 9.24709 7.60116 9.24414C4.22916 9.24414 1.96415 11.4261 1.96415 14.6741C1.92994 15.407 2.0512 16.1389 2.31997 16.8216C2.58875 17.5043 2.99895 18.1224 3.52362 18.6352C4.04829 19.1481 4.67555 19.5441 5.36418 19.7973C6.05281 20.0504 6.78723 20.155 7.51916 20.1041Z" fill="#050505"/>
<path fill-rule="evenodd" clip-rule="evenodd" d="M26.5351 15.5942L28.0031 12.2542L29.4621 15.5942H26.5351ZM27.2261 9.4082L22.5381 19.9212H24.7141L25.7141 17.4472H30.2931L31.3101 19.9212H33.4721L28.7881 9.4082H27.2261Z" fill="#050505"/>
<path fill-rule="evenodd" clip-rule="evenodd" d="M50.6348 12.8903C50.6348 13.9903 49.8578 14.6663 48.5568 14.6663H46.9438V11.2773C47.5548 11.2593 47.9738 11.2613 48.5438 11.2613C49.9578 11.2613 50.6368 11.8163 50.6368 12.8893L50.6348 12.8903ZM46.9438 16.5253H48.2438C48.4088 16.5253 48.5718 16.5183 48.7328 16.5103L51.2058 19.9253H53.6058L50.7058 15.9633C51.281 15.6836 51.763 15.2434 52.0936 14.6958C52.4242 14.1482 52.5892 13.5166 52.5688 12.8773C52.5688 10.7113 50.9978 9.36133 48.4688 9.36133C47.4918 9.36133 46.4688 9.40433 45.6168 9.44433L44.7998 9.47633V19.9253H46.9378L46.9438 16.5253Z" fill="#050505"/>
<path fill-rule="evenodd" clip-rule="evenodd" d="M69.5478 19.9212H71.3808V11.2612H75.0458V9.4082H65.8828V11.2642H69.5478V19.9212Z" fill="#050505"/>
<path fill-rule="evenodd" clip-rule="evenodd" d="M91.7792 9.24406C91.0592 9.21304 90.3407 9.3325 89.6695 9.59481C88.9983 9.85712 88.3891 10.2565 87.881 10.7675C87.3728 11.2785 86.9768 11.8898 86.7182 12.5624C86.4596 13.2351 86.3442 13.9543 86.3792 14.6741C86.355 15.3979 86.4768 16.1193 86.7371 16.7952C86.9975 17.471 87.3911 18.0876 87.8947 18.6082C88.3982 19.1289 89.0013 19.5429 89.6682 19.8256C90.335 20.1083 91.0519 20.254 91.7762 20.254C92.5005 20.254 93.2173 20.1083 93.8842 19.8256C94.551 19.5429 95.1541 19.1289 95.6576 18.6082C96.1612 18.0876 96.5549 17.471 96.8152 16.7952C97.0756 16.1193 97.1973 15.3979 97.1732 14.6741C97.2092 13.9549 97.0947 13.2361 96.8371 12.5637C96.5795 11.8913 96.1844 11.28 95.6771 10.7689C95.1698 10.2579 94.5615 9.8583 93.891 9.59574C93.2205 9.33317 92.5026 9.21339 91.7832 9.24406" fill="#050505"/>
<path fill-rule="evenodd" clip-rule="evenodd" d="M113.032 9.24406C112.312 9.21304 111.594 9.3325 110.922 9.59481C110.251 9.85712 109.642 10.2565 109.134 10.7675C108.626 11.2785 108.23 11.8898 107.971 12.5624C107.713 13.2351 107.597 13.9543 107.632 14.6741C107.608 15.3979 107.73 16.1193 107.99 16.7952C108.25 17.471 108.644 18.0876 109.148 18.6082C109.651 19.1289 110.254 19.5429 110.921 19.8256C111.588 20.1083 112.305 20.254 113.029 20.254C113.753 20.254 114.47 20.1083 115.137 19.8256C115.804 19.5429 116.407 19.1289 116.911 18.6082C117.414 18.0876 117.808 17.471 118.068 16.7952C118.329 16.1193 118.45 15.3979 118.426 14.6741C118.462 13.9549 118.348 13.2361 118.09 12.5637C117.832 11.8913 117.437 11.28 116.93 10.7689C116.423 10.2579 115.814 9.8583 115.144 9.59574C114.473 9.33317 113.756 9.21339 113.036 9.24406" fill="#050505"/>
<path fill-rule="evenodd" clip-rule="evenodd" d="M136.749 9.4082V16.3722L131.481 9.4082H129.723V19.9212H131.861V13.0092L137.041 19.9242H138.89V9.4082H136.749Z" fill="#050505"/>
<path fill-rule="evenodd" clip-rule="evenodd" d="M10.183 31.0571L6.749 38.6331L3.316 31.0571H1.606L1 41.5731H2.942L3.282 35.7471L6 41.5731H7.5L10.207 35.7471L10.557 41.5731H12.499L11.892 31.0581L10.183 31.0571Z" fill="#050505"/>
<path fill-rule="evenodd" clip-rule="evenodd" d="M26.5351 37.2431L28.0031 33.9031L29.4621 37.2431H26.5351ZM27.2211 31.0571L22.5381 41.5731H24.7141L25.7141 39.0991H30.2931L31.3081 41.5731H33.4701L28.7881 31.0571H27.2211Z" fill="#050505"/>
<path fill-rule="evenodd" clip-rule="evenodd" d="M51.8321 38.0041L46.4592 31.0571H44.8062V41.5731H46.6392V34.6411L52.0191 41.5731H53.6692V31.0571H51.8321V38.0041Z" fill="#050505"/>
<path fill-rule="evenodd" clip-rule="evenodd" d="M69.8522 37.243H73.8232V39.331C72.8931 39.6334 71.9222 39.7916 70.9442 39.8C70.4758 39.8304 70.0064 39.7606 69.5672 39.5951C69.128 39.4297 68.7291 39.1725 68.3972 38.8407C68.0653 38.5089 67.808 38.1101 67.6424 37.6709C67.4769 37.2317 67.4069 36.7623 67.4372 36.294C67.4063 35.8258 67.4764 35.3564 67.6427 34.9177C67.8091 34.479 68.0678 34.0811 68.4013 33.7511C68.7348 33.4211 69.1354 33.1666 69.5758 33.0049C70.0163 32.8433 70.4864 32.7781 70.9542 32.814C71.9549 32.8348 72.9496 32.9748 73.9172 33.231L74.3972 33.352L74.8162 31.502L74.3732 31.37C73.2392 31.0422 72.0646 30.8763 70.8842 30.877C70.1585 30.8311 69.4312 30.9393 68.7503 31.1945C68.0694 31.4497 67.4502 31.846 66.9334 32.3576C66.4165 32.8691 66.0138 33.4842 65.7516 34.1625C65.4895 34.8408 65.3738 35.5668 65.4122 36.293C65.3719 37.0208 65.4861 37.7489 65.7472 38.4295C66.0084 39.1101 66.4106 39.7277 66.9274 40.2418C67.4442 40.7558 68.064 41.1547 68.7459 41.4123C69.4279 41.6698 70.1566 41.7801 70.8842 41.736C72.4235 41.7131 73.9415 41.3726 75.3432 40.736L75.6562 40.606V35.387H69.8522V37.243Z" fill="#050505"/>
<path fill-rule="evenodd" clip-rule="evenodd" d="M91.7792 30.8759C91.0592 30.8448 90.3406 30.9641 89.6693 31.2264C88.9981 31.4886 88.3889 31.888 87.8807 32.399C87.3725 32.91 86.9765 33.5214 86.7179 34.1942C86.4594 34.8669 86.3441 35.5861 86.3792 36.3059C86.3551 37.0298 86.4768 37.7512 86.7372 38.4271C86.9975 39.1029 87.3912 39.7195 87.8947 40.2401C88.3983 40.7607 89.0014 41.1747 89.6682 41.4575C90.335 41.7402 91.0519 41.8859 91.7762 41.8859C92.5005 41.8859 93.2174 41.7402 93.8842 41.4575C94.551 41.1747 95.1542 40.7607 95.6577 40.2401C96.1612 39.7195 96.5549 39.1029 96.8153 38.4271C97.0756 37.7512 97.1974 37.0298 97.1732 36.3059C97.2092 35.5868 97.0947 34.868 96.8371 34.1956C96.5795 33.5231 96.1845 32.9119 95.6772 32.4008C95.1699 31.8898 94.5616 31.4902 93.8911 31.2276C93.2206 30.9651 92.5026 30.8453 91.7832 30.8759" fill="#050505"/>
<path fill-rule="evenodd" clip-rule="evenodd" d="M145.406 3.50398C145.406 3.96598 145.075 4.25198 144.542 4.25198H143.818V2.81898C144.092 2.80998 144.294 2.80598 144.518 2.80598C144.848 2.80598 145.402 2.89698 145.402 3.50598L145.406 3.50398ZM145.157 4.58198C145.378 4.50311 145.568 4.35634 145.7 4.16269C145.833 3.96905 145.901 3.73847 145.894 3.50398C145.894 2.77098 145.376 2.33398 144.508 2.33398C144.156 2.33398 143.808 2.34998 143.501 2.36398L143.317 2.37198V5.95498H143.817V4.71498H144.426C144.504 4.71498 144.582 4.71498 144.657 4.70698L145.557 5.95498H146.164L145.157 4.58198Z" fill="#050505"/>
<path fill-rule="evenodd" clip-rule="evenodd" d="M144.586 0.854152C144.139 0.834437 143.692 0.908223 143.275 1.07079C142.858 1.23336 142.48 1.48114 142.164 1.7983C141.848 2.11546 141.602 2.49501 141.441 2.91271C141.28 3.33042 141.208 3.77708 141.23 4.22415C141.219 4.67097 141.297 5.11545 141.461 5.53145C141.624 5.94744 141.869 6.32653 142.182 6.64641C142.494 6.96628 142.867 7.22048 143.279 7.39404C143.69 7.5676 144.133 7.65701 144.58 7.65701C145.027 7.65701 145.469 7.5676 145.881 7.39404C146.293 7.22048 146.666 6.96628 146.978 6.64641C147.29 6.32653 147.535 5.94744 147.699 5.53145C147.862 5.11545 147.941 4.67097 147.93 4.22415C147.952 3.77776 147.881 3.33164 147.721 2.91431C147.561 2.49697 147.316 2.11759 147.001 1.80043C146.686 1.48327 146.308 1.23529 145.892 1.07235C145.476 0.909414 145.03 0.835097 144.584 0.854152H144.586ZM144.584 8.16815C144.061 8.19104 143.539 8.10453 143.051 7.91414C142.563 7.72376 142.121 7.43369 141.751 7.06248C141.382 6.69128 141.094 6.2471 140.907 5.75837C140.719 5.26963 140.635 4.74709 140.661 4.22415C140.661 3.18503 141.074 2.18848 141.808 1.45371C142.543 0.71894 143.54 0.306152 144.579 0.306152C145.618 0.306152 146.614 0.71894 147.349 1.45371C148.084 2.18848 148.497 3.18503 148.497 4.22415C148.523 4.74637 148.44 5.2683 148.253 5.7566C148.066 6.2449 147.779 6.68883 147.411 7.06001C147.043 7.43119 146.601 7.72146 146.114 7.91227C145.627 8.10308 145.106 8.19023 144.584 8.16815Z" fill="#050505"/>
</svg>
