<?xml version="1.0" encoding="UTF-8"?>
<svg id="Layer_1" data-name="Layer 1" xmlns="http://www.w3.org/2000/svg" viewBox="0 0 600 400">
  <defs>
    <style>
      .cls-1 {
        fill: #007cc3;
      }

      .cls-2 {
        fill: none;
      }
    </style>
  </defs>
  <path class="cls-1" d="M325.93,201.57c8.21,7.46,15.62,11.31,25.07,11.31,9.68.06,18.29-4.67,18.29-13.77,0-7.6-6.75-12.04-18.8-17.14-10.2-4.41-17.8-7.51-21.78-13.9.49,2.78.74,5.64.74,8.58,0,24.65-17.89,44.65-39.96,44.65s-39.96-20-39.96-44.65c0-14.86,6.5-28.03,16.5-36.15h-27.05v77.36h-12.01v-12.71c0-.23,0-.46,0-.68v-63.97h-10.59v-8.05h10.75c1.38-16.25,11.45-25.43,25.39-25.43,9.04,0,14,.94,16.86,2.26v11.01c-.04.83-.04,1.33-.04,1.33-.12-.01-.42-.01-.42-.01-4.34-4.01-8.64-7-18.65-6.98-7.99,0-13.27,6.48-11.42,17.83h44.95c1.86-.3,3.76-.45,5.68-.45,16.01,0,29.83,10.53,36.2,25.72-.06-.84-.09-1.72-.09-2.63,0-15.86,15.35-22.61,31.3-22.57.61,0,1.2,0,1.79.01,5.62-.09,13.61,1.74,18.49,3.02l9.47,23.25,13.52,32.97,1.59,5.31,1.77-5.31,17.1-42.32c3.16-11.66,15.66-16.7,29.45-16.68,6.86-.03,11.93.79,18,2.93v12.79c-7.47-5.43-12.84-8.58-21.32-8.58-7.46,0-16.42,3.3-16.42,14.27-.16,8.25,4.79,9.76,19.32,16.96,11.94,5.18,22.95,10.91,23.02,24.15,0,22.09-21.78,25.9-32.37,25.94-9.46,0-18.13-2.34-22.95-6.35v-14.57l.77.64c8.61,8.03,16.21,12.18,26.04,12.18,9.69.07,18.29-4.66,18.29-13.77,0-7.61-6.74-12.04-18.79-17.14-11.52-4.99-19.08-8.29-22.16-16.54-4.69,11.45-26.53,64.62-31.68,75.99h-11.78l5.25-9.8.08-.15c2.94-5.81,7.24-14.93,11.06-23.66l-22.67-54.72c-.15-.33-.52-1.17-1.29-2.89-1.73-3.97-3.35-7.63-8.25-9.47-2.63-.89-5.42-1.34-8.66-1.34-7.46,0-17,3.3-17,14.27-.14,8.25,5.38,9.76,19.91,16.96,11.94,5.18,22.95,10.9,23.02,24.15,0,22.09-21.78,25.91-32.37,25.95-8.42,0-16.2-1.85-21.22-5.08v-14.33ZM164.67,133.27l.15,9.66v.65s.12,0,.12,0c.15-.4.36-.75.56-1,4.88-5.24,11.03-10.43,25.66-10.43s23.07,11.89,23.42,19.37l.02,52.94v13.4h-12.01v-60.85c0-9.33-8.19-16.08-18.22-16.08-8.34,0-19.05,7.49-19.4,15.09v48.82s.01,13.04.01,13.04h-12.01v-13.4s0-60.08,0-60.08v-11.13h11.69ZM127.43,120.79v-.16s0-13.23,0-13.23h13.3v97.37s0,13.1,0,13.1h-13.3v-13.4s0-83.68,0-83.68ZM381.63,146.43c.16.44.35.91.56,1.4l4.47,10.96-5.03-12.36ZM380.85,236.48c.61-1.03,1.46-2.62,2.47-4.61l-2.47,4.61ZM371.79,153.35c.35.77-.48-1.14-.48-1.14l.48,1.14ZM261.73,177.63c.34,20.09,12.84,36.14,27.92,35.88,15.08-.27,27.04-16.76,26.7-36.84-.35-20.08-12.85-36.14-27.93-35.87-15.08.27-27.03,16.77-26.68,36.83M150.25,250.1v32.31h-4.08l-.02-.03-9.64-16.33c-2.53-4.27-4.33-7.67-5.66-10.69h-.03c.22,4.02.32,7.85.32,13.23v13.82h-3.83v-32.31h4.39v.03s9.75,16.28,9.75,16.28c2.2,3.67,3.97,7.06,5.42,10.37-.37-4.44-.44-8.47-.44-13.15v-13.53h3.83ZM171.47,282.33c-.25-1.42-.37-3.22-.37-5.53v-8.64c0-7.86-4.54-9.51-8.36-9.51-2.67,0-5.3.74-7.21,2.06l-.04.03.92,2.82.02.07.08-.04c1.57-1.07,3.67-1.71,5.64-1.71,3.21,0,4.89,1.83,4.89,5.28v.41h-.12c-4.98,0-8.74,1.12-10.88,3.24-1.4,1.4-2.13,3.22-2.13,5.41,0,3.24,2.11,6.7,6.73,6.7,2.74,0,5.25-1.28,6.71-3.43h.04l.32,2.91h3.74v-.08ZM161.71,279.7c-1.78,0-3.67-1.03-3.67-3.94,0-1.3.42-2.36,1.25-3.16,1.35-1.32,3.8-1.99,7.29-1.99.18,0,.39,0,.57.01v3.95c0,.39-.08.85-.23,1.31-.56,1.77-2.27,3.82-5.21,3.82ZM193.69,259.18l-.04.09-8.58,23.15h-3.88v-.04s-8.34-23.19-8.34-23.19h4.38v.04s4.29,12.98,4.29,12.98c.78,2.28,1.34,4.15,1.75,5.88h.02c.47-1.8,1.06-3.58,1.85-5.88l4.25-13.02h4.3ZM201.9,252.75c.02.74-.22,1.4-.7,1.89-.47.49-1.13.74-1.89.74-1.4,0-2.46-1.13-2.46-2.64s1.09-2.69,2.55-2.69,2.5,1.1,2.5,2.69ZM201.44,259.18v23.23h-4.1v-23.23h4.1ZM222.04,259.18l-.17,3.45c-.78-1.51-2.67-3.97-6.84-3.97-2.58,0-5.01,1.14-6.84,3.22-1.99,2.28-3.06,5.42-3.06,9.11,0,3.13.94,6,2.64,8.08,1.71,2.1,4.1,3.26,6.72,3.26,3.02,0,5.55-1.4,6.97-3.84v2.48c0,6.62-3.79,8-6.97,8s-5.54-1.26-6.36-1.8l-.08-.05-1.02,3.28-.02.05.04.03c1.67,1.19,4.47,1.92,7.29,1.92,2.37,0,5.65-.48,7.99-2.79,2.16-2.05,3.13-5.32,3.13-10.6v-13.41c0-2.8.08-4.67.17-6.34v-.07s-3.6,0-3.6,0ZM215.66,278.99c-3.87,0-6.38-3.25-6.38-8.25s2.59-8.66,6.43-8.66c3.07,0,4.85,2.27,5.48,4.39.2.62.23,1.3.23,1.89v4.15c0,.8-.12,1.59-.32,2.22-.83,2.59-2.96,4.26-5.44,4.26ZM246.74,282.33c-.24-1.42-.36-3.22-.36-5.53v-8.64c0-7.86-4.54-9.51-8.37-9.51-2.67,0-5.3.74-7.2,2.06l-.04.03.91,2.82.03.07.07-.04c1.56-1.07,3.67-1.71,5.65-1.71,2.23,0,4.89.92,4.89,5.28v.41h-.12c-4.97,0-8.73,1.12-10.87,3.24-1.41,1.4-2.13,3.22-2.13,5.41,0,3.24,2.12,6.7,6.74,6.7,2.75,0,5.25-1.28,6.71-3.43h.04l.31,2.91h3.75v-.08ZM236.99,279.7c-1.77,0-3.68-1.03-3.68-3.94,0-1.3.42-2.36,1.25-3.16,1.35-1.32,3.79-1.99,7.29-1.99.19,0,.38,0,.58.01v3.95c0,.39-.08.85-.23,1.31-.57,1.77-2.28,3.82-5.21,3.82ZM256.52,262.5v12.39c0,3.06.9,4.43,2.91,4.43,1.07,0,1.83-.15,2.28-.28l.09-.02v.07l.19,3.2-.04.02c-.86.37-2.12.57-3.55.57-1.87,0-3.36-.61-4.33-1.79-1.06-1.16-1.54-3.09-1.54-6.06v-12.54h-3.39v-3.32h3.39v-5.53h.04s3.96-1.13,3.96-1.13v6.66h5.68v3.32h-5.68ZM281.53,262.53c-1.6-2.57-4.03-3.87-7.23-3.87-6.07,0-10.3,5.15-10.3,12.53,0,3.47.99,6.4,2.86,8.47,1.91,2.12,4.65,3.23,7.93,3.23,3.53,0,5.92-.77,7.29-1.44l.05-.02-.69-3.06-.02-.08-.07.03c-1.37.61-3.05,1.18-6.02,1.18-4.54,0-7.31-2.94-7.41-7.89h15.32l.03-.24c.05-.43.11-1.04.11-1.78,0-1.24-.18-4.39-1.85-7.07ZM267.98,268.48c.3-2.53,1.88-6.7,6.01-6.7,1.5,0,2.72.47,3.63,1.41,1.68,1.71,1.81,4.4,1.8,5.29h-11.44ZM315.51,259.18l-.04.09-5.95,16.46c-3.03,8.48-4.93,12.14-7.5,14.49-1.78,1.68-3.7,2.51-4.9,2.74l-.06.02-.02-.07-1.01-3.59.06-.03c.56-.18,2.03-.77,3.45-2.03,1.32-1.11,2.57-2.85,3.32-4.66.19-.44.32-.75.32-.98s-.08-.52-.27-1.08l-8.1-21.37h4.47l.02.04,4.78,13.65c.51,1.58,1.04,3.35,1.38,4.65.13-.46.28-.95.42-1.48.28-1.02.6-2.18.95-3.27l4.35-13.61h4.34ZM334.82,261.96c-1.91-2.17-4.56-3.31-7.64-3.31s-5.77,1.15-7.73,3.25c-2.06,2.22-3.15,5.37-3.15,9.08,0,7.05,4.33,11.95,10.52,11.95,2.85,0,5.49-1.05,7.46-2.94,2.27-2.21,3.47-5.46,3.47-9.39,0-3.48-1-6.47-2.92-8.64ZM327,279.65c-3.81,0-6.57-3.71-6.57-8.81,0-4.43,2.06-8.91,6.65-8.91s6.48,4.57,6.48,8.81c0,5.16-2.76,8.91-6.56,8.91ZM360.06,282.41h-3.65v-.06s-.22-3.69-.22-3.69c-.76,1.33-2.92,4.28-7.25,4.28-1.43,0-3.49-.35-5.09-2.03-1.67-1.73-2.5-4.47-2.5-8.15v-13.57h4.1v12.85c0,4.9,1.57,7.29,4.8,7.29,2.73,0,4.49-2.04,5.16-3.78.24-.63.35-1.39.35-2.13v-14.24h4.1v16.87c0,2.65.06,4.64.18,6.3v.07ZM375.47,258.81v4.09h-.07c-.43-.12-.83-.16-1.34-.16-2.63,0-4.7,2.1-5.25,5.34-.09.6-.18,1.24-.18,1.95v12.38h-4.05v-15.96c0-3-.05-5.23-.18-7.21v-.07h3.61v.06l.13,4.47h.06c1-3.07,3.39-5.06,6.09-5.06.43,0,.75.04,1.15.14l.04.02ZM407.56,268.55v13.86h-4.09v-13.39c0-5.88-3.12-6.76-4.99-6.76-2,0-4.4,1.32-5.25,4.25-.17.5-.27,1.2-.27,1.94v13.96h-4.1v-16.91c0-2.6-.05-4.47-.18-6.25v-.07s3.64,0,3.64,0v.06s.23,3.73.23,3.73c1.06-2.1,3.51-4.32,7.24-4.32,1.3,0,7.77.47,7.77,9.9ZM428.71,262.53c-1.61-2.57-4.04-3.87-7.24-3.87-6.07,0-10.29,5.15-10.29,12.53,0,3.47.99,6.4,2.86,8.47,1.91,2.12,4.65,3.23,7.93,3.23,3.53,0,5.91-.77,7.29-1.44l.05-.02-.69-3.06v-.08s-.09.03-.09.03c-1.37.61-3.05,1.18-6.01,1.18-4.54,0-7.31-2.94-7.41-7.89h15.31l.04-.24c.04-.43.11-1.04.11-1.78,0-1.24-.18-4.39-1.84-7.07ZM415.14,268.48c.29-2.53,1.88-6.7,6.01-6.7,1.5,0,2.71.47,3.63,1.41,1.68,1.71,1.81,4.4,1.8,5.29h-11.45ZM452.11,282.41h-4.67l-.02-.02-3.2-5.21c-.83-1.3-1.55-2.58-2.33-3.97h0c-.54,1.04-1.11,1.99-1.71,3.01-.19.31-.38.63-.56.96l-3.19,5.24h-4.52l7.79-11.85-7.44-11.38h4.57l3.13,4.99c.81,1.3,1.51,2.51,2.19,3.74h.06c.58-1.11,1.16-2.1,1.73-3.07.14-.24.28-.48.42-.72l3.08-4.95h4.45l-.07.1-7.43,11.13,7.72,12ZM462.01,262.5v12.39c0,3.06.9,4.43,2.91,4.43,1.07,0,1.83-.15,2.28-.28l.08-.02v.07l.18,3.2-.04.02c-.85.37-2.11.57-3.54.57-1.87,0-3.37-.61-4.34-1.79-1.05-1.16-1.54-3.09-1.54-6.06v-12.54h-3.39v-3.32h3.39v-5.53h.06s3.95-1.13,3.95-1.13v6.66h5.69v3.32h-5.69Z"/>
  <rect class="cls-2" width="600" height="400"/>
</svg>